<svg width="84" height="84" viewBox="0 0 84 84" fill="none" xmlns="http://www.w3.org/2000/svg">
<path d="M81.7801 29C88.9801 51 76.8801 74.7 54.8801 81.8C32.8801 89 9.18009 76.9 2.08009 54.9C-5.11991 32.9 6.98011 9.20001 28.9801 2.10001C33.1801 0.700006 37.5801 0 41.9801 0C60.1801 0.1 76.1801 11.8 81.7801 29ZM41.9801 3.8C20.8801 3.8 3.88011 20.9 3.88011 42C3.88011 63.1 20.9801 80.1 42.0801 80.1C63.1801 80.1 80.1801 63 80.1801 41.9C80.1801 37.9 79.5801 34 78.2801 30.2C73.1801 14.5 58.4801 3.8 41.9801 3.8Z" fill="#E73933"/>
<path fill-rule="evenodd" clip-rule="evenodd" d="M25.0803 55.9001C23.5803 55.5001 22.2803 54.3001 21.7803 52.8001C20.3803 48.9001 19.9803 32.6001 22.6803 29.4001C23.5803 28.3001 24.8803 27.6001 26.2803 27.5001C33.5803 26.7001 56.3803 26.8001 58.9803 27.8001C60.4803 28.3001 61.5803 29.3001 62.1803 30.8001C63.7803 34.8001 63.7803 49.5001 61.9803 53.4001C61.4803 54.4001 60.6803 55.2001 59.6803 55.7001C56.8803 57.3001 28.6803 57.2001 25.0803 55.9001ZM36.7803 48.3001L49.9803 41.4001L36.7803 34.5001V48.3001Z" fill="#E73933"/>
</svg>
