<svg width="84" height="84" viewBox="0 0 84 84" fill="none" xmlns="http://www.w3.org/2000/svg">
<path d="M81.7801 29C88.9801 51 76.8801 74.7 54.8801 81.8C32.8801 89 9.18009 76.9 2.08009 54.9C-5.11991 32.9 6.9801 9.19999 28.9801 2.09999C33.1801 0.699991 37.5801 0 41.9801 0C60.0801 0.1 76.1801 11.8 81.7801 29ZM41.9801 3.89999C20.8801 3.89999 3.88009 21 3.88009 42.1C3.88009 63.2 20.9801 80.2 42.0801 80.2C63.1801 80.2 80.1801 63.1 80.1801 42C80.1801 38 79.5801 34.1 78.2801 30.3C73.1801 14.5 58.4801 3.79999 41.9801 3.89999Z" fill="#4D77AC"/>
<path fill-rule="evenodd" clip-rule="evenodd" d="M48.7805 27.5998C50.1805 27.5998 51.5805 27.5998 52.8805 27.5998H53.4805V20.4998C52.7805 20.4998 51.9805 20.2998 51.1805 20.2998C49.7805 20.2998 48.3805 20.2998 46.9805 20.2998C44.8805 20.2998 42.7805 20.8998 41.0805 22.0998C39.1805 23.4998 37.8805 25.6998 37.5805 27.9998C37.3805 28.8998 37.2805 29.8998 37.2805 30.7998C37.2805 32.3998 37.2805 33.9998 37.2805 35.5998V36.3998H30.4805V44.2998H37.1805V64.1998H45.5805V44.1998H52.2805L53.0805 36.2998H45.2805C45.2805 36.2998 45.2805 32.3998 45.2805 30.6998C45.5805 28.2998 46.9805 27.5998 48.7805 27.5998Z" fill="#4D77AC"/>
</svg>
