<svg width="84" height="84" viewBox="0 0 84 84" fill="none" xmlns="http://www.w3.org/2000/svg">
<path d="M41.9 0C18.8 0 0 18.8 0 41.9C0 65 18.8 83.8 41.9 83.8C65 83.8 83.8 65 83.8 41.9C83.8 18.8 65 0 41.9 0ZM41.9 80.6C20.5 80.6 3.2 63.3 3.3 41.9C3.3 20.5 20.6 3.2 42 3.3C63.4 3.3 80.7 20.6 80.6 42C80.6 47.5 79.4 52.9 77.2 57.8C70.9 71.7 57.1 80.6 41.9 80.6Z" fill="url(#paint0_linear_453_9988)"/>
<path d="M54.7998 19.2002H28.9998C23.6998 19.2002 19.3998 23.4002 19.2998 28.6002V55.1002C19.3998 60.4002 23.6998 64.6002 28.9998 64.5002H54.6998C59.9998 64.6002 64.2998 60.3002 64.3998 55.1002V28.6002C64.2998 23.4002 59.9998 19.2002 54.7998 19.2002ZM60.4998 55.2002C60.4998 58.3002 57.9998 60.8002 54.8998 60.8002C54.7998 60.8002 54.7998 60.8002 54.6998 60.8002H28.9998C25.8998 60.9002 23.2998 58.5002 23.1998 55.4002C23.1998 55.3002 23.1998 55.3002 23.1998 55.2002V28.7002C23.1998 25.6002 25.6998 23.1002 28.7998 23.1002C28.8998 23.1002 28.8998 23.1002 28.9998 23.1002H54.6998C57.7998 23.0002 60.3998 25.4002 60.4998 28.5002C60.4998 28.6002 60.4998 28.6002 60.4998 28.7002V55.2002Z" fill="url(#paint1_linear_453_9988)"/>
<path d="M41.9001 30.0996C35.4001 30.0996 30.1001 35.3996 30.1001 41.8996C30.1001 48.3996 35.4001 53.6996 41.9001 53.6996C48.4001 53.6996 53.7001 48.3996 53.7001 41.8996C53.7001 35.3996 48.4001 30.0996 41.9001 30.0996ZM41.9001 49.6996C37.5001 49.6996 34.0001 46.1996 34.0001 41.7996C34.0001 37.3996 37.5001 33.8996 41.9001 33.8996C46.3001 33.8996 49.8001 37.3996 49.8001 41.7996V41.8996C49.8001 46.1996 46.3001 49.7996 41.9001 49.7996V49.6996Z" fill="url(#paint2_linear_453_9988)"/>
<path d="M54.5002 32.3998C56.0466 32.3998 57.3002 31.1462 57.3002 29.5998C57.3002 28.0534 56.0466 26.7998 54.5002 26.7998C52.9538 26.7998 51.7002 28.0534 51.7002 29.5998C51.7002 31.1462 52.9538 32.3998 54.5002 32.3998Z" fill="url(#paint3_linear_453_9988)"/>
<defs>
<linearGradient id="paint0_linear_453_9988" x1="9.80789" y1="78.2952" x2="74.4243" y2="5.04659" gradientUnits="userSpaceOnUse">
<stop stop-color="#ECAE53"/>
<stop offset="0.33" stop-color="#E0213F"/>
<stop offset="0.65" stop-color="#9B358B"/>
<stop offset="1" stop-color="#4A4A9A"/>
</linearGradient>
<linearGradient id="paint1_linear_453_9988" x1="4.5028" y1="84.3043" x2="82.0536" y2="-3.5829" gradientUnits="userSpaceOnUse">
<stop stop-color="#ECAE53"/>
<stop offset="0.33" stop-color="#E0213F"/>
<stop offset="0.65" stop-color="#9B358B"/>
<stop offset="1" stop-color="#4A4A9A"/>
</linearGradient>
<linearGradient id="paint2_linear_453_9988" x1="4.4997" y1="84.3007" x2="82.0505" y2="-3.5864" gradientUnits="userSpaceOnUse">
<stop stop-color="#ECAE53"/>
<stop offset="0.33" stop-color="#E0213F"/>
<stop offset="0.65" stop-color="#9B358B"/>
<stop offset="1" stop-color="#4A4A9A"/>
</linearGradient>
<linearGradient id="paint3_linear_453_9988" x1="5.49741" y1="85.1564" x2="83.0202" y2="-2.73065" gradientUnits="userSpaceOnUse">
<stop stop-color="#ECAE53"/>
<stop offset="0.33" stop-color="#E0213F"/>
<stop offset="0.65" stop-color="#9B358B"/>
<stop offset="1" stop-color="#4A4A9A"/>
</linearGradient>
</defs>
</svg>
