<svg width="84" height="84" viewBox="0 0 84 84" fill="none" xmlns="http://www.w3.org/2000/svg">
<path d="M81.7801 29C88.9801 51 76.8801 74.7 54.8801 81.8C32.8801 89 9.18009 76.9 2.08009 54.9C-5.11991 32.9 6.98009 9.20001 28.9801 2.10001C33.1801 0.700006 37.5801 0 41.9801 0C60.1801 0.1 76.1801 11.8 81.7801 29ZM41.9801 3.8C20.8801 3.8 3.88008 20.9 3.88008 42C3.88008 63.1 20.9801 80.1 42.0801 80.1C63.1801 80.1 80.1801 63 80.1801 41.9C80.1801 37.9 79.5801 34 78.2801 30.2C73.1801 14.5 58.4801 3.8 41.9801 3.8Z" fill="#42ACE2"/>
<path fill-rule="evenodd" clip-rule="evenodd" d="M34.4801 52.8998C30.2801 52.7998 26.6801 50.0998 25.3801 46.0998C26.7801 46.3998 28.1801 46.3998 29.5801 46.0998H29.6801C27.0801 45.5998 24.7801 43.8998 23.3801 41.5998C22.3801 39.9998 21.8801 38.1998 21.9801 36.2998C23.2801 36.9998 24.7801 37.3998 26.2801 37.4998C24.2801 36.0998 22.8801 33.8998 22.3801 31.4998C21.7801 29.0998 22.1801 26.5998 23.3801 24.3998C28.3801 30.4998 35.6801 34.1998 43.4801 34.5998C43.4801 34.1998 43.4801 33.8998 43.2801 33.4998C42.6801 28.1998 46.4801 23.2998 51.7801 22.5998C54.7801 22.1998 57.6801 23.2998 59.8801 25.3998C59.9801 25.5998 60.1801 25.5998 60.3801 25.5998C62.3801 25.1998 64.1801 24.3998 65.9801 23.3998C65.2801 25.5998 63.7801 27.4998 61.7801 28.6998C63.6801 28.4998 65.4801 27.9998 67.1801 27.1998C66.7801 27.6998 66.4801 28.1998 66.0801 28.6998C65.0801 29.9998 63.8801 31.0998 62.5801 32.0998C62.4801 32.1998 62.3801 32.2998 62.3801 32.3998C62.4801 33.7998 62.3801 35.2998 62.1801 36.6998C61.7801 39.6998 60.9801 42.5998 59.6801 45.3998C58.4801 48.1998 56.7801 50.7998 54.6801 52.9998C51.0801 56.7998 46.3801 59.3998 41.2801 60.4998C39.4801 60.8998 37.6801 61.0998 35.8801 61.0998C30.3801 61.2998 24.9801 59.7998 20.2801 56.8998L20.0801 56.7998C23.3801 57.1998 26.7801 56.6998 29.7801 55.4998C31.5801 54.8998 33.0801 53.9998 34.4801 52.8998Z" fill="#42ACE2"/>
</svg>
