<svg width="84" height="84" viewBox="0 0 84 84" fill="none" xmlns="http://www.w3.org/2000/svg">
<path d="M81.7421 29C88.9421 51 76.8421 74.7 54.8421 81.8C32.8421 89 9.14214 76.9 2.04214 54.9C-5.05786 32.9 6.94214 9.20001 28.9421 2.10001C33.1421 0.700006 37.5421 0 41.9421 0C60.0421 0.1 76.0421 11.8 81.7421 29ZM41.8421 3.8C20.7421 3.8 3.74213 20.9 3.74213 42C3.74213 63.1 20.8421 80.1 41.9421 80.1C63.0421 80.1 80.0421 63 80.0421 41.9C80.0421 37.9 79.4422 34 78.1422 30.2C73.0422 14.5 58.4421 3.8 41.8421 3.8Z" fill="#1186C8"/>
<path d="M26.1424 34.7004H34.1424V60.5004H26.1424V34.7004ZM30.1424 21.9004C32.7424 21.9004 34.7424 24.0004 34.7424 26.6004C34.7424 29.2004 32.6424 31.2004 30.0424 31.2004C27.4424 31.2004 25.4424 29.1004 25.4424 26.6004C25.4424 23.9004 27.5424 21.9004 30.1424 21.9004Z" fill="#1186C8"/>
<path d="M39.042 34.6996H46.742V38.1996C48.342 35.4996 51.242 33.8995 54.342 33.9995C62.442 33.9995 63.942 39.2995 63.942 46.2995V60.3996H56.142V47.8996C56.142 44.8996 56.142 41.0996 51.942 41.0996C47.742 41.0996 47.142 44.3996 47.142 47.5996V60.3996H39.042V34.6996Z" fill="#1186C8"/>
</svg>
