<?xml version="1.0" encoding="utf-8"?>
<!-- Generator: Adobe Illustrator 26.0.3, SVG Export Plug-In . SVG Version: 6.00 Build 0)  -->
<svg version="1.0" id="katman_1" xmlns="http://www.w3.org/2000/svg" xmlns:xlink="http://www.w3.org/1999/xlink" x="0px" y="0px"
	 viewBox="0 0 600 450" style="enable-background:new 0 0 600 450;" xml:space="preserve">
<style type="text/css">
	.st0{fill:#4D77AC;}
	.st1{fill-rule:evenodd;clip-rule:evenodd;fill:#4D77AC;}
	.st2{fill:url(#SVGID_1_);}
	.st3{fill:url(#SVGID_00000065793468580361685720000015458923363663815810_);}
	.st4{fill:url(#SVGID_00000148636194141241803450000018417214302777615775_);}
	.st5{fill:url(#SVGID_00000019659806158128258910000004803481636108675735_);}
	.st6{fill:#42ACE2;}
	.st7{fill-rule:evenodd;clip-rule:evenodd;fill:#42ACE2;}
	.st8{fill:#E73933;}
	.st9{fill-rule:evenodd;clip-rule:evenodd;fill:#E73933;}
	.st10{fill:#1186C8;}
</style>
<g>
	<g id="Footer">
		<path class="st0" d="M242.6,211.1c7.2,22-4.9,45.7-26.9,52.8c-22,7.2-45.7-4.9-52.8-26.9c-7.2-22,4.9-45.7,26.9-52.8
			c4.2-1.4,8.6-2.1,13-2.1C220.9,182.2,237,193.9,242.6,211.1z M202.8,186c-21.1,0-38.1,17.1-38.1,38.2c0,21.1,17.1,38.1,38.2,38.1
			c21.1,0,38.1-17.1,38.1-38.2c0-4-0.6-7.9-1.9-11.7C234,196.6,219.3,185.9,202.8,186z"/>
		<path class="st1" d="M209.6,209.7c1.4,0,2.8,0,4.1,0h0.6v-7.1c-0.7,0-1.5-0.2-2.3-0.2c-1.4,0-2.8,0-4.2,0c-2.1,0-4.2,0.6-5.9,1.8
			c-1.9,1.4-3.2,3.6-3.5,5.9c-0.2,0.9-0.3,1.9-0.3,2.8c0,1.6,0,3.2,0,4.8v0.8h-6.8v7.9h6.7v19.9h8.4v-20h6.7l0.8-7.9h-7.8
			c0,0,0-3.9,0-5.6C206.4,210.4,207.8,209.7,209.6,209.7z"/>
	</g>
	<g id="Footer_00000060731145794484315360000009105668273505501614_">
		
			<linearGradient id="SVGID_1_" gradientUnits="userSpaceOnUse" x1="194.4528" y1="117.067" x2="259.0692" y2="190.3156" gradientTransform="matrix(1 0 0 -1 -120.9449 379.3622)">
			<stop  offset="0" style="stop-color:#ECAE53"/>
			<stop  offset="0.33" style="stop-color:#E0213F"/>
			<stop  offset="0.65" style="stop-color:#9B358B"/>
			<stop  offset="1" style="stop-color:#4A4A9A"/>
		</linearGradient>
		<path class="st2" d="M105.6,184c-23.1,0-41.9,18.8-41.9,41.9s18.8,41.9,41.9,41.9s41.9-18.8,41.9-41.9S128.7,184,105.6,184z
			 M105.6,264.6c-21.4,0-38.7-17.3-38.6-38.7c0-21.4,17.3-38.7,38.7-38.6c21.4,0,38.7,17.3,38.6,38.7c0,5.5-1.2,10.9-3.4,15.8
			C134.6,255.7,120.8,264.6,105.6,264.6z"/>
		
			<linearGradient id="SVGID_00000026121262332658328290000012749119379189057156_" gradientUnits="userSpaceOnUse" x1="189.1479" y1="111.0581" x2="266.6987" y2="198.9453" gradientTransform="matrix(1 0 0 -1 -120.9449 379.3622)">
			<stop  offset="0" style="stop-color:#ECAE53"/>
			<stop  offset="0.33" style="stop-color:#E0213F"/>
			<stop  offset="0.65" style="stop-color:#9B358B"/>
			<stop  offset="1" style="stop-color:#4A4A9A"/>
		</linearGradient>
		<path style="fill:url(#SVGID_00000026121262332658328290000012749119379189057156_);" d="M118.5,203.2H92.7
			c-5.3,0-9.6,4.2-9.7,9.4v26.5c0.1,5.3,4.4,9.5,9.7,9.4c0,0,0,0,0,0h25.7c5.3,0.1,9.6-4.2,9.7-9.4c0,0,0,0,0,0v-26.5
			C128,207.4,123.7,203.2,118.5,203.2z M124.2,239.2c0,3.1-2.5,5.6-5.6,5.6c-0.1,0-0.1,0-0.2,0H92.7c-3.1,0.1-5.7-2.3-5.8-5.4
			c0-0.1,0-0.1,0-0.2v-26.5c0-3.1,2.5-5.6,5.6-5.6c0.1,0,0.1,0,0.2,0h25.7c3.1-0.1,5.7,2.3,5.8,5.4c0,0.1,0,0.1,0,0.2L124.2,239.2z"
			/>
		
			<linearGradient id="SVGID_00000049944891907320088450000008707075413700163004_" gradientUnits="userSpaceOnUse" x1="189.1445" y1="111.0611" x2="266.6953" y2="198.9482" gradientTransform="matrix(1 0 0 -1 -120.9449 379.3622)">
			<stop  offset="0" style="stop-color:#ECAE53"/>
			<stop  offset="0.33" style="stop-color:#E0213F"/>
			<stop  offset="0.65" style="stop-color:#9B358B"/>
			<stop  offset="1" style="stop-color:#4A4A9A"/>
		</linearGradient>
		<path style="fill:url(#SVGID_00000049944891907320088450000008707075413700163004_);" d="M105.6,214.1c-6.5,0-11.8,5.3-11.8,11.8
			s5.3,11.8,11.8,11.8c6.5,0,11.8-5.3,11.8-11.8S112.1,214.1,105.6,214.1L105.6,214.1z M105.6,233.7c-4.4,0-7.9-3.5-7.9-7.9
			c0-4.4,3.5-7.9,7.9-7.9s7.9,3.5,7.9,7.9c0,0,0,0.1,0,0.1c0,4.3-3.5,7.9-7.9,7.9V233.7z"/>
		
			<linearGradient id="SVGID_00000009579026255882656420000014802812724194573954_" gradientUnits="userSpaceOnUse" x1="190.1421" y1="110.2055" x2="267.665" y2="198.0926" gradientTransform="matrix(1 0 0 -1 -120.9449 379.3622)">
			<stop  offset="0" style="stop-color:#ECAE53"/>
			<stop  offset="0.33" style="stop-color:#E0213F"/>
			<stop  offset="0.65" style="stop-color:#9B358B"/>
			<stop  offset="1" style="stop-color:#4A4A9A"/>
		</linearGradient>
		<circle style="fill:url(#SVGID_00000009579026255882656420000014802812724194573954_);" cx="118.2" cy="213.6" r="2.8"/>
	</g>
	<g id="Footer_00000131326812203794713360000007310237020916286137_">
		<path class="st6" d="M339.8,210.4c7.2,22-4.9,45.7-26.9,52.8c-22,7.2-45.7-4.9-52.8-26.9c-7.2-22,4.9-45.7,26.9-52.8
			c4.2-1.4,8.6-2.1,13-2.1C318.2,181.5,334.2,193.2,339.8,210.4z M300,185.2c-21.1,0-38.1,17.1-38.1,38.2s17.1,38.1,38.2,38.1
			c21.1,0,38.1-17.1,38.1-38.2c0-4-0.6-7.9-1.9-11.7C331.2,195.9,316.5,185.2,300,185.2z"/>
		<path class="st7" d="M292.5,234.3c-4.2-0.1-7.8-2.8-9.1-6.8c1.4,0.3,2.8,0.3,4.2,0h0.1c-2.6-0.5-4.9-2.2-6.3-4.5
			c-1-1.6-1.5-3.4-1.4-5.3c1.3,0.7,2.8,1.1,4.3,1.2c-2-1.4-3.4-3.6-3.9-6c-0.6-2.4-0.2-4.9,1-7.1c5,6.1,12.3,9.8,20.1,10.2
			c0-0.4,0-0.7-0.2-1.1c-0.6-5.3,3.2-10.2,8.5-10.9c3-0.4,5.9,0.7,8.1,2.8c0.1,0.2,0.3,0.2,0.5,0.2c2-0.4,3.8-1.2,5.6-2.2l0,0l0,0
			c-0.7,2.2-2.2,4.1-4.2,5.3c1.9-0.2,3.7-0.7,5.4-1.5l0,0c-0.4,0.5-0.7,1-1.1,1.5c-1,1.3-2.2,2.4-3.5,3.4c-0.1,0.1-0.2,0.2-0.2,0.3
			c0.1,1.4,0,2.9-0.2,4.3c-0.4,3-1.2,5.9-2.5,8.7c-1.2,2.8-2.9,5.4-5,7.6c-3.6,3.8-8.3,6.4-13.4,7.5c-1.8,0.4-3.6,0.6-5.4,0.6
			c-5.5,0.2-10.9-1.3-15.6-4.2l-0.2-0.1c3.3,0.4,6.7-0.1,9.7-1.3C289.6,236.3,291.1,235.4,292.5,234.3z"/>
	</g>
	<g id="Footer_00000097478219325602259810000016515601242319258798_">
		<path class="st8" d="M437,210.4c7.2,22-4.9,45.7-26.9,52.8c-22,7.2-45.7-4.9-52.8-26.9c-7.2-22,4.9-45.7,26.9-52.8
			c4.2-1.4,8.6-2.1,13-2.1C415.4,181.5,431.4,193.2,437,210.4z M397.2,185.2c-21.1,0-38.1,17.1-38.1,38.2
			c0,21.1,17.1,38.1,38.2,38.1c21.1,0,38.1-17.1,38.1-38.2c0-4-0.6-7.9-1.9-11.7C428.4,195.9,413.7,185.2,397.2,185.2z"/>
		<path class="st9" d="M380.3,237.3c-1.5-0.4-2.8-1.6-3.3-3.1c-1.4-3.9-1.8-20.2,0.9-23.4c0.9-1.1,2.2-1.8,3.6-1.9
			c7.3-0.8,30.1-0.7,32.7,0.3c1.5,0.5,2.6,1.5,3.2,3c1.6,4,1.6,18.7-0.2,22.6c-0.5,1-1.3,1.8-2.3,2.3
			C412.1,238.7,383.9,238.6,380.3,237.3z M392,229.7l13.2-6.9l-13.2-6.9V229.7z"/>
	</g>
	<g id="Grundutbildningsprogram">
		<path class="st10" d="M534.3,210.4c7.2,22-4.9,45.7-26.9,52.8c-22,7.2-45.7-4.9-52.8-26.9s4.9-45.7,26.9-52.8
			c4.2-1.4,8.6-2.1,13-2.1C512.6,181.5,528.6,193.2,534.3,210.4z M494.4,185.2c-21.1,0-38.1,17.1-38.1,38.2s17.1,38.1,38.2,38.1
			c21.1,0,38.1-17.1,38.1-38.2c0-4-0.6-7.9-1.9-11.7C525.6,195.9,511,185.2,494.4,185.2z"/>
		<path class="st10" d="M478.7,216.1h8v25.8h-8V216.1z M482.7,203.3c2.6,0,4.6,2.1,4.6,4.7c0,2.6-2.1,4.6-4.7,4.6
			c-2.6,0-4.6-2.1-4.6-4.6C478,205.3,480.1,203.3,482.7,203.3"/>
		<path class="st10" d="M491.6,216.1h7.7v3.5l0,0c1.6-2.7,4.5-4.3,7.6-4.2c8.1,0,9.6,5.3,9.6,12.3v14.1h-7.8v-12.5
			c0-3,0-6.8-4.2-6.8s-4.8,3.3-4.8,6.5v12.8h-8.1V216.1z"/>
	</g>
</g>
</svg>
